<svg width="179" height="40" viewBox="0 0 179 40" fill="none" xmlns="http://www.w3.org/2000/svg">
<path d="M70.921 6.18825C70.921 5.44403 71.0641 4.69981 71.379 3.95558C71.6938 3.21135 72.0946 2.553 72.6098 1.9519C73.0964 1.37942 73.6689 0.921432 74.3272 0.549319C74.9856 0.177207 75.6153 0.00546265 76.2737 0.00546265C76.8175 0.00546265 77.3328 0.119958 77.848 0.320326C78.3632 0.549319 78.8212 0.778312 79.2792 1.06455L78.6495 2.92511C78.2487 2.83924 77.8194 2.75337 77.39 2.72475C76.932 2.6675 76.5885 2.63887 76.3309 2.63887C75.5867 2.63887 75.0428 2.81062 74.6707 3.12548C74.27 3.44035 74.0983 4.07008 74.0983 5.04329V6.90386H77.4759V8.73579H74.0983V16.5788C74.0983 16.7505 74.1555 16.8936 74.2414 16.9795C74.3272 17.094 74.4704 17.1513 74.6421 17.1513L76.7889 17.3803V18.7256H69.1749V17.3803L70.3199 17.1799C70.4916 17.1513 70.6347 17.094 70.7206 17.0081C70.8065 16.8936 70.8637 16.7791 70.8637 16.5788V8.76442L69.0032 8.47818V7.1901L70.921 6.87523V6.18825Z" fill="#38146A"/>
<path d="M93.3832 17.3786V18.724H86.0268V17.3786L87.2004 17.1783C87.3722 17.1496 87.5153 17.0924 87.6012 16.9779C87.687 16.892 87.7443 16.7489 87.7443 16.5772V9.44977C87.7443 9.27803 87.687 9.13491 87.6012 9.02041C87.5439 8.90592 87.4008 8.82004 87.2291 8.79142L85.9124 8.5338V7.18848C86.5421 7.01673 87.2004 6.87361 87.9447 6.75911C88.6603 6.64462 89.3472 6.61599 89.9483 6.58737L90.4636 7.01673L90.8071 9.02041C91.265 8.30481 91.8089 7.73233 92.4673 7.24572C93.1256 6.78774 93.784 6.55875 94.4709 6.55875C94.6999 6.55875 94.9862 6.58737 95.301 6.64462C95.6159 6.70187 95.8735 6.78774 96.0453 6.87361C96.0739 7.18848 96.1025 7.50334 96.1025 7.87545C96.1025 8.21894 96.1025 8.59105 96.0739 8.99179C96.0453 9.3639 96.0166 9.76464 95.9594 10.1367C95.9021 10.5375 95.8449 10.9096 95.759 11.2817H94.2992L93.9557 9.90776C93.8985 9.67877 93.784 9.50702 93.6695 9.42115C93.555 9.33528 93.3832 9.30665 93.1542 9.30665C92.8394 9.30665 92.4959 9.3639 92.0951 9.50702C91.723 9.65014 91.3509 9.87913 90.9788 10.194V16.5772C90.9788 16.7489 91.0361 16.892 91.1219 16.9779C91.2078 17.0924 91.3223 17.1496 91.5227 17.1783L93.3832 17.3786Z" fill="#38146A"/>
<path d="M107.508 17.0965C107.88 17.0965 108.252 17.0392 108.595 16.9247C108.968 16.7816 109.282 16.6385 109.54 16.4095V13.7761L108.137 13.8906C107.393 13.9192 106.878 14.1196 106.563 14.4344C106.277 14.7779 106.105 15.1787 106.105 15.6939C106.105 16.1519 106.22 16.4954 106.449 16.7244C106.649 16.982 107.021 17.0965 107.508 17.0965ZM112.03 18.9284C111.486 18.9284 111 18.8139 110.599 18.5849C110.227 18.3559 109.912 18.0124 109.74 17.4972C109.311 17.9552 108.796 18.3273 108.195 18.5849C107.594 18.8425 106.907 18.957 106.162 18.957C105.132 18.957 104.302 18.6994 103.701 18.1842C103.071 17.669 102.756 16.9534 102.756 16.066C102.756 15.4935 102.871 15.0069 103.128 14.5776C103.386 14.1482 103.729 13.8047 104.159 13.5471C104.588 13.2609 105.103 13.0605 105.647 12.9174C106.191 12.7456 106.763 12.6598 107.336 12.6311L109.54 12.488V11.2572C109.54 10.3126 109.34 9.68286 108.968 9.31074C108.567 8.93863 107.966 8.76689 107.193 8.76689C106.534 8.76689 105.933 8.88138 105.39 9.08175C104.846 9.28212 104.33 9.62561 103.844 10.0263L103.1 9.36799C103.414 8.50927 104.016 7.82229 104.874 7.33569C105.762 6.84908 106.849 6.59146 108.137 6.59146C109.712 6.59146 110.885 6.9922 111.601 7.73642C112.345 8.48065 112.717 9.62561 112.717 11.0854V16.4954C112.717 16.7244 112.775 16.8675 112.86 16.9534C112.946 17.0679 113.089 17.1251 113.261 17.1251L114.349 17.2682V18.5277C114.12 18.5849 113.776 18.6708 113.318 18.7567C112.86 18.8712 112.431 18.9284 112.03 18.9284Z" fill="#38146A"/>
<path d="M121.001 12.9419C121.001 11.9401 121.144 11.0527 121.431 10.2512C121.717 9.44977 122.118 8.79142 122.633 8.24756C123.148 7.70371 123.778 7.27435 124.522 6.98811C125.266 6.70187 126.068 6.55875 126.955 6.55875C127.671 6.55875 128.386 6.64462 129.102 6.81636C129.817 6.98811 130.39 7.18847 130.848 7.41747C130.905 8.07582 130.905 8.73417 130.848 9.39252C130.791 10.0795 130.733 10.7092 130.619 11.3103H129.016L128.472 9.33528C128.415 9.10628 128.358 8.93454 128.3 8.79142C128.214 8.67692 128.157 8.56243 128.043 8.44793C127.9 8.36206 127.728 8.24756 127.528 8.16169C127.327 8.10444 127.07 8.0472 126.812 8.0472C126.125 8.0472 125.581 8.39068 125.152 9.10628C124.722 9.79326 124.522 10.9096 124.522 12.4553C124.522 13.9437 124.751 15.0601 125.238 15.8043C125.696 16.5485 126.44 16.9206 127.47 16.9206C128.1 16.9206 128.644 16.8061 129.13 16.5772C129.588 16.3482 129.961 16.1192 130.247 15.8616L130.991 16.4627C130.705 17.2069 130.19 17.808 129.388 18.266C128.615 18.7526 127.613 18.9816 126.44 18.9816C125.495 18.9816 124.694 18.8385 124.007 18.5236C123.32 18.2087 122.747 17.7794 122.318 17.2641C121.86 16.7203 121.545 16.0619 121.316 15.3177C121.116 14.6021 121.001 13.8006 121.001 12.9419Z" fill="#38146A"/>
<path d="M139.298 15.4078V8.70977L137.638 8.42353V7.1927L138.955 6.9637C139.126 6.93508 139.27 6.87783 139.384 6.76334C139.47 6.67746 139.556 6.53434 139.613 6.3626L140.615 3.15671H142.447L142.533 6.87783H145.996V8.65252H142.561V14.6063C142.561 15.4364 142.704 16.0089 142.962 16.2951C143.22 16.61 143.592 16.7531 144.078 16.7531C144.393 16.7531 144.737 16.6959 145.08 16.5814C145.395 16.4669 145.71 16.2665 145.996 16.0089L146.683 16.7531C146.34 17.4687 145.824 18.0126 145.109 18.3847C144.393 18.7568 143.592 18.9285 142.676 18.9285C141.703 18.9285 140.872 18.6709 140.243 18.1843C139.613 17.6977 139.298 16.7817 139.298 15.4078Z" fill="#38146A"/>
<path d="M158.094 17.0965C158.466 17.0965 158.838 17.0392 159.182 16.9247C159.554 16.7816 159.869 16.6385 160.126 16.4095V13.7761L158.724 13.8906C157.979 13.9192 157.464 14.1196 157.149 14.4344C156.863 14.7779 156.691 15.1787 156.691 15.6939C156.691 16.1519 156.806 16.4954 157.035 16.7244C157.235 16.982 157.607 17.0965 158.094 17.0965ZM162.616 18.9284C162.073 18.9284 161.586 18.8139 161.185 18.5849C160.813 18.3559 160.498 18.0124 160.327 17.4972C159.897 17.9552 159.382 18.3273 158.781 18.5849C158.18 18.8425 157.493 18.957 156.749 18.957C155.718 18.957 154.888 18.6994 154.287 18.1842C153.657 17.669 153.342 16.9534 153.342 16.066C153.342 15.4935 153.457 15.0069 153.714 14.5776C153.972 14.1482 154.316 13.8047 154.745 13.5471C155.174 13.2609 155.689 13.0605 156.233 12.9174C156.777 12.7456 157.35 12.6598 157.922 12.6311L160.126 12.488V11.2572C160.126 10.3126 159.926 9.68286 159.554 9.31074C159.153 8.93863 158.552 8.76689 157.779 8.76689C157.121 8.76689 156.52 8.88138 155.976 9.08175C155.432 9.28212 154.917 9.62561 154.43 10.0263L153.686 9.36799C154.001 8.50927 154.602 7.82229 155.46 7.33569C156.348 6.84908 157.436 6.59146 158.724 6.59146C160.298 6.59146 161.472 6.9922 162.187 7.73642C162.931 8.48065 163.303 9.62561 163.303 11.0854V16.4954C163.303 16.7244 163.361 16.8675 163.447 16.9534C163.532 17.0679 163.676 17.1251 163.847 17.1251L164.935 17.2682V18.5277C164.706 18.5849 164.363 18.6708 163.905 18.7567C163.447 18.8712 163.017 18.9284 162.616 18.9284Z" fill="#38146A"/>
<path d="M176.781 0.406199V16.5788C176.781 16.7505 176.809 16.8936 176.895 16.9795C176.981 17.094 177.124 17.1513 177.267 17.1799L178.613 17.3803V18.7256H171.657V17.3803L173.002 17.1799C173.174 17.1513 173.288 17.094 173.374 16.9795C173.489 16.8936 173.517 16.7505 173.517 16.5788V2.75337C173.517 2.58162 173.489 2.4385 173.374 2.32401C173.288 2.23814 173.174 2.18089 173.002 2.15227L171.571 1.92327V0.63519C171.915 0.549318 172.315 0.463448 172.716 0.377575C173.117 0.291703 173.546 0.234454 173.947 0.177206C174.376 0.119958 174.777 0.0913344 175.178 0.0340863C175.607 0.00546228 175.979 0.00546265 176.323 0.00546265L176.781 0.406199Z" fill="#38146A"/>
<path d="M73.9011 38.3718C74.1888 38.3718 74.5005 38.3238 74.7882 38.2519C75.0758 38.156 75.3396 38.0362 75.5793 37.8923V31.0838C75.4115 30.9879 75.2197 30.916 74.9799 30.8681C74.7402 30.8201 74.5005 30.7962 74.2607 30.7962C73.9251 30.7962 73.5895 30.8441 73.3018 30.9879C73.0141 31.1078 72.7744 31.3236 72.5586 31.6113C72.3429 31.9229 72.175 32.3305 72.0552 32.8339C71.9353 33.3373 71.8874 33.9607 71.8874 34.7278C71.8874 36.0703 72.0792 37.0053 72.4388 37.5567C72.7984 38.1081 73.3018 38.3718 73.9011 38.3718ZM77.7129 39.9061C77.2095 39.9061 76.8019 39.7862 76.4903 39.5944C76.1786 39.3787 75.9389 39.091 75.7711 38.7074C75.4354 39.067 75.0279 39.3547 74.5484 39.5944C74.0929 39.8342 73.5415 39.9301 72.9422 39.9301C72.3908 39.9301 71.8634 39.8342 71.3839 39.6664C70.9045 39.4746 70.4729 39.1629 70.1373 38.7793C69.7777 38.3958 69.49 37.8683 69.2982 37.269C69.1064 36.6457 68.9866 35.9025 68.9866 35.0634C68.9866 33.2654 69.4421 31.8989 70.377 30.964C71.288 30.029 72.5347 29.5495 74.1409 29.5495C74.3806 29.5495 74.6443 29.5735 74.8841 29.5975C75.1478 29.6215 75.3635 29.6694 75.5793 29.6934V26.3611C75.5793 26.2172 75.5313 26.0973 75.4594 26.0015C75.3875 25.9295 75.2916 25.8816 75.1478 25.8576L73.9491 25.6658V24.587C74.2368 24.5151 74.5484 24.4432 74.908 24.3713C75.2437 24.2993 75.5793 24.2514 75.9389 24.2034C76.2985 24.1555 76.6341 24.1315 76.9937 24.0836C77.3294 24.0596 77.641 24.0596 77.9287 24.0596L78.2883 24.3952V37.8683C78.2883 38.0601 78.3362 38.18 78.4321 38.2759C78.5041 38.3478 78.6239 38.3958 78.7678 38.3958L79.6788 38.5156V39.5705C79.463 39.6184 79.1753 39.6903 78.7917 39.7862C78.4082 39.8581 78.0486 39.9061 77.7129 39.9061Z" fill="#38146A"/>
<path d="M85.0717 29.9318V37.9389C85.0717 38.0828 85.1196 38.1787 85.1915 38.2746C85.2635 38.3705 85.3594 38.4184 85.5032 38.4424L86.4861 38.6102V39.7369H80.9243V38.6102L81.9072 38.4424C82.051 38.4184 82.1709 38.3705 82.2428 38.2746C82.3147 38.1787 82.3627 38.0828 82.3627 37.9389V31.9456C82.3627 31.8017 82.3147 31.6818 82.2428 31.5859C82.1709 31.4901 82.075 31.4421 81.9312 31.4181L80.8284 31.2024V30.0756C81.4037 29.9078 82.051 29.7879 82.7702 29.716C83.4655 29.6201 84.1127 29.5961 84.6881 29.5961L85.0717 29.9318ZM85.0957 26.8632C85.0957 27.2947 84.9758 27.6543 84.6881 27.918C84.4004 28.2057 84.0168 28.3256 83.5374 28.3256C83.0579 28.3256 82.6983 28.2057 82.4106 27.918C82.1229 27.6543 81.9791 27.2947 81.9791 26.8632C81.9791 26.4316 82.1229 26.072 82.4106 25.8083C82.6983 25.5446 83.0579 25.4008 83.5374 25.4008C84.0168 25.4008 84.4004 25.5446 84.6881 25.8083C84.9758 26.072 85.0957 26.4316 85.0957 26.8632Z" fill="#38146A"/>
<path d="M92.9518 38.6096V39.7363H87.7255V38.6096L88.7324 38.4418C88.8523 38.4178 88.9722 38.3698 89.0441 38.2739C89.116 38.1781 89.1639 38.0822 89.1639 37.9383V31.9449C89.1639 31.8011 89.116 31.6812 89.0441 31.5853C88.9722 31.4894 88.8763 31.4415 88.7324 31.4175L87.6296 31.2257V30.075C88.181 29.9312 88.7804 29.8113 89.4037 29.7154C90.051 29.6195 90.6263 29.5955 91.1777 29.5716L91.5853 29.9551L91.7291 30.9141C92.1367 30.4586 92.6161 30.123 93.1435 29.9072C93.6949 29.6914 94.2943 29.5955 94.9176 29.5955C95.5888 29.5955 96.1642 29.7154 96.5718 29.9551C96.9793 30.1949 97.3149 30.5305 97.5067 30.986C97.9622 30.4826 98.4896 30.1469 99.065 29.9312C99.6643 29.7154 100.264 29.5955 100.911 29.5955C102.086 29.5955 102.877 29.9312 103.308 30.6024C103.74 31.2737 103.956 32.2326 103.956 33.4553V37.9383C103.956 38.0822 104.004 38.202 104.075 38.2739C104.147 38.3698 104.243 38.4178 104.387 38.4418L105.37 38.6096V39.7363H100.144V38.6096L100.815 38.4418C100.959 38.3938 101.055 38.3459 101.127 38.2739C101.199 38.1781 101.247 38.0822 101.247 37.9383V33.7909C101.247 32.9039 101.103 32.2566 100.863 31.873C100.599 31.4655 100.168 31.2737 99.5445 31.2737C99.2808 31.2737 98.9931 31.3216 98.6814 31.3935C98.3698 31.4894 98.0821 31.6093 97.7944 31.8011C97.8184 32.0408 97.8663 32.2806 97.8903 32.5443C97.9143 32.808 97.9143 33.0717 97.9143 33.3834V37.9383C97.9143 38.0822 97.9382 38.1781 98.0102 38.2739C98.0821 38.3459 98.202 38.3938 98.3218 38.4418L99.0171 38.6096V39.7363H94.1025V38.6096L94.7737 38.4418C94.8936 38.3938 95.0135 38.3459 95.0854 38.2739C95.1573 38.1781 95.2053 38.0822 95.2053 37.9383V33.719C95.2053 32.8559 95.0854 32.2326 94.8457 31.849C94.6299 31.4655 94.1984 31.2737 93.599 31.2737C93.3353 31.2737 93.0477 31.3216 92.736 31.3935C92.4243 31.4894 92.1367 31.6093 91.8729 31.7771V37.9383C91.8729 38.0822 91.8969 38.1781 91.9688 38.2739C92.0408 38.3459 92.1367 38.3938 92.2565 38.4418L92.9518 38.6096Z" fill="#38146A"/>
<path d="M111.205 30.7463C110.725 30.7463 110.342 30.9381 110.03 31.2977C109.742 31.6812 109.527 32.3045 109.455 33.2155H112.763C112.763 33.1436 112.763 33.0957 112.763 33.0237V32.808C112.763 32.2086 112.643 31.7052 112.379 31.3216C112.116 30.9381 111.732 30.7463 111.205 30.7463ZM115.232 37.5547C114.993 38.3219 114.537 38.8973 113.818 39.3288C113.075 39.7363 112.212 39.9521 111.181 39.9521C110.39 39.9521 109.718 39.8322 109.143 39.5925C108.568 39.3527 108.088 38.9931 107.705 38.5616C107.321 38.1061 107.057 37.5787 106.866 36.9554C106.674 36.3321 106.578 35.6369 106.578 34.8697C106.578 33.1676 107.009 31.849 107.872 30.9381C108.735 30.0271 109.91 29.5716 111.421 29.5716C112.715 29.5716 113.674 29.8832 114.321 30.5065C114.969 31.1059 115.304 31.9449 115.304 32.9518C115.304 33.1436 115.28 33.3833 115.256 33.6231C115.232 33.8868 115.208 34.1026 115.16 34.2943H109.407V34.3663C109.407 35.7328 109.599 36.7396 110.03 37.339C110.438 37.9383 111.109 38.226 111.996 38.226C112.499 38.226 112.979 38.1301 113.434 37.9383C113.914 37.7465 114.273 37.4828 114.585 37.1232L115.232 37.5547Z" fill="#38146A"/>
<path d="M122.108 38.6096V39.7363H116.834V38.6096L117.841 38.4418C117.96 38.4178 118.08 38.3698 118.152 38.2739C118.224 38.1781 118.272 38.0822 118.272 37.9383V31.9449C118.272 31.8011 118.224 31.6812 118.152 31.5853C118.08 31.4894 117.984 31.4415 117.841 31.4175L116.738 31.2018V30.075C117.289 29.9312 117.889 29.8113 118.512 29.7154C119.159 29.6195 119.734 29.5955 120.286 29.5716L120.693 29.9551L120.861 30.9381C121.293 30.4586 121.796 30.123 122.348 29.9072C122.923 29.7154 123.522 29.5955 124.17 29.5955C125.32 29.5955 126.111 29.9312 126.543 30.5785C126.974 31.2497 127.19 32.1847 127.19 33.3834V37.9383C127.19 38.0822 127.214 38.202 127.31 38.2739C127.382 38.3698 127.478 38.4178 127.622 38.4418L128.605 38.6096V39.7363H123.354V38.6096L124.05 38.4418C124.194 38.3938 124.289 38.3459 124.361 38.2739C124.433 38.1781 124.457 38.0822 124.457 37.9383V33.719C124.457 32.8559 124.337 32.2326 124.098 31.849C123.858 31.4655 123.426 31.2737 122.827 31.2737C122.539 31.2737 122.204 31.3216 121.892 31.4175C121.58 31.5134 121.269 31.6333 120.981 31.8251V37.9383C120.981 38.0822 121.029 38.1781 121.101 38.2739C121.173 38.3459 121.269 38.3938 121.389 38.4418L122.108 38.6096Z" fill="#38146A"/>
<path d="M130.018 39.2329C129.946 38.7774 129.922 38.2979 129.946 37.8184C129.97 37.339 129.994 36.8595 130.066 36.452H131.432L131.792 37.7465C131.864 37.9143 131.912 38.0582 131.96 38.1781C132.008 38.2739 132.104 38.3698 132.2 38.4418C132.343 38.5377 132.535 38.6335 132.799 38.7294C133.063 38.8253 133.35 38.8733 133.686 38.8733C134.189 38.8733 134.573 38.7534 134.837 38.5137C135.076 38.25 135.22 37.9623 135.22 37.6027C135.22 37.363 135.148 37.1472 135.028 36.9554C134.885 36.7876 134.693 36.6198 134.453 36.4759C134.237 36.3081 133.95 36.1643 133.614 36.0204C133.278 35.8766 132.919 35.7088 132.535 35.541C131.792 35.1814 131.193 34.7978 130.713 34.3663C130.258 33.9347 130.018 33.3354 130.018 32.5683C130.018 31.6573 130.354 30.9381 131.049 30.3867C131.72 29.8353 132.727 29.5716 134.021 29.5716C134.573 29.5716 135.172 29.6195 135.772 29.7394C136.371 29.8353 136.874 29.9791 137.306 30.1469C137.33 30.5545 137.33 31.01 137.306 31.4655C137.282 31.9449 137.234 32.3765 137.162 32.808H135.867L135.508 31.6093C135.46 31.4415 135.412 31.2977 135.34 31.2018C135.268 31.1059 135.172 31.0339 135.052 30.9381C134.909 30.8661 134.765 30.7942 134.573 30.7463C134.381 30.6983 134.189 30.6743 133.974 30.6504C133.566 30.6504 133.206 30.7463 132.943 30.962C132.679 31.1778 132.535 31.4655 132.535 31.849C132.535 32.0888 132.607 32.3045 132.727 32.4963C132.847 32.6641 133.015 32.832 133.206 32.9518C133.398 33.0957 133.638 33.2155 133.902 33.3354C134.165 33.4313 134.429 33.5512 134.717 33.671C135.124 33.8388 135.532 34.0306 135.915 34.2224C136.299 34.4142 136.635 34.63 136.946 34.8697C137.234 35.1334 137.45 35.4211 137.641 35.7567C137.809 36.0924 137.905 36.4999 137.905 36.9554C137.905 37.4588 137.785 37.9143 137.57 38.2739C137.378 38.6575 137.09 38.9932 136.707 39.2329C136.347 39.4966 135.891 39.6884 135.364 39.8083C134.861 39.9281 134.285 40 133.686 40C132.967 40 132.295 39.9281 131.648 39.7603C131.001 39.5925 130.473 39.4247 130.018 39.2329Z" fill="#38146A"/>
<path d="M143.517 29.9318V37.9389C143.517 38.0828 143.565 38.1787 143.637 38.2746C143.709 38.3705 143.804 38.4184 143.948 38.4424L144.931 38.6102V39.7369H139.369V38.6102L140.352 38.4424C140.496 38.4184 140.616 38.3705 140.688 38.2746C140.76 38.1787 140.808 38.0828 140.808 37.9389V31.9456C140.808 31.8017 140.76 31.6818 140.688 31.5859C140.616 31.4901 140.52 31.4421 140.376 31.4181L139.273 31.2024V30.0756C139.849 29.9078 140.496 29.7879 141.215 29.716C141.911 29.6201 142.558 29.5961 143.133 29.5961L143.517 29.9318ZM143.541 26.8632C143.541 27.2947 143.421 27.6543 143.133 27.918C142.845 28.2057 142.462 28.3256 141.982 28.3256C141.503 28.3256 141.143 28.2057 140.856 27.918C140.568 27.6543 140.424 27.2947 140.424 26.8632C140.424 26.4316 140.568 26.072 140.856 25.8083C141.143 25.5446 141.503 25.4008 141.982 25.4008C142.462 25.4008 142.845 25.5446 143.133 25.8083C143.421 26.072 143.541 26.4316 143.541 26.8632Z" fill="#38146A"/>
<path d="M146.217 34.8479C146.217 33.9129 146.36 33.0978 146.624 32.4026C146.864 31.7313 147.223 31.1799 147.679 30.7724C148.134 30.3409 148.662 30.0532 149.285 29.8374C149.884 29.6456 150.556 29.5497 151.251 29.5497C152.785 29.5497 153.96 29.9813 154.775 30.8683C155.59 31.7313 155.998 33.0019 155.998 34.6801C155.998 35.615 155.878 36.4301 155.614 37.1254C155.35 37.7966 155.015 38.324 154.559 38.7556C154.104 39.1631 153.576 39.4748 152.953 39.6666C152.33 39.8584 151.683 39.9542 150.963 39.9542C149.453 39.9542 148.278 39.5227 147.463 38.6597C146.624 37.7966 146.217 36.526 146.217 34.8479ZM153.049 34.8719C153.049 33.4814 152.905 32.4266 152.641 31.7553C152.354 31.108 151.826 30.7724 151.059 30.7724C150.436 30.7724 149.956 31.0601 149.645 31.6354C149.333 32.2108 149.165 33.2177 149.165 34.6321C149.165 36.0466 149.309 37.0774 149.597 37.7487C149.884 38.4199 150.412 38.7556 151.179 38.7556C151.802 38.7556 152.282 38.4679 152.594 37.8686C152.905 37.2932 153.049 36.2863 153.049 34.8719Z" fill="#38146A"/>
<path d="M162.829 38.6096V39.7363H157.554V38.6096L158.561 38.4418C158.681 38.4178 158.801 38.3698 158.873 38.2739C158.945 38.1781 158.993 38.0822 158.993 37.9383V31.9449C158.993 31.8011 158.945 31.6812 158.873 31.5853C158.801 31.4894 158.705 31.4415 158.561 31.4175L157.458 31.2018V30.075C158.01 29.9312 158.609 29.8113 159.233 29.7154C159.88 29.6195 160.455 29.5955 161.007 29.5716L161.414 29.9551L161.582 30.9381C162.013 30.4586 162.517 30.123 163.068 29.9072C163.644 29.7154 164.243 29.5955 164.89 29.5955C166.041 29.5955 166.832 29.9312 167.264 30.5785C167.695 31.2497 167.911 32.1847 167.911 33.3834V37.9383C167.911 38.0822 167.935 38.202 168.031 38.2739C168.103 38.3698 168.199 38.4178 168.342 38.4418L169.325 38.6096V39.7363H164.075V38.6096L164.77 38.4418C164.914 38.3938 165.01 38.3459 165.082 38.2739C165.154 38.1781 165.178 38.0822 165.178 37.9383V33.719C165.178 32.8559 165.058 32.2326 164.818 31.849C164.579 31.4655 164.147 31.2737 163.548 31.2737C163.26 31.2737 162.924 31.3216 162.613 31.4175C162.301 31.5134 161.989 31.6333 161.702 31.8251V37.9383C161.702 38.0822 161.75 38.1781 161.822 38.2739C161.894 38.3459 161.989 38.3938 162.109 38.4418L162.829 38.6096Z" fill="#38146A"/>
<path d="M170.736 39.2329C170.664 38.7774 170.64 38.2979 170.664 37.8184C170.688 37.339 170.712 36.8595 170.784 36.452H172.15L172.51 37.7465C172.582 37.9143 172.63 38.0582 172.678 38.1781C172.726 38.2739 172.822 38.3698 172.918 38.4418C173.061 38.5377 173.253 38.6335 173.517 38.7294C173.781 38.8253 174.068 38.8733 174.404 38.8733C174.907 38.8733 175.291 38.7534 175.555 38.5137C175.794 38.25 175.938 37.9623 175.938 37.6027C175.938 37.363 175.866 37.1472 175.746 36.9554C175.603 36.7876 175.411 36.6198 175.171 36.4759C174.955 36.3081 174.668 36.1643 174.332 36.0204C173.996 35.8766 173.637 35.7088 173.253 35.541C172.51 35.1814 171.911 34.7978 171.431 34.3663C170.976 33.9347 170.736 33.3354 170.736 32.5683C170.736 31.6573 171.072 30.9381 171.767 30.3867C172.438 29.8353 173.445 29.5716 174.74 29.5716C175.291 29.5716 175.89 29.6195 176.49 29.7394C177.089 29.8353 177.592 29.9791 178.024 30.1469C178.048 30.5545 178.048 31.01 178.024 31.4655C178 31.9449 177.952 32.3765 177.88 32.808H176.585L176.226 31.6093C176.178 31.4415 176.13 31.2977 176.058 31.2018C175.986 31.1059 175.89 31.0339 175.77 30.9381C175.627 30.8661 175.483 30.7942 175.291 30.7463C175.099 30.6983 174.907 30.6743 174.692 30.6504C174.284 30.6504 173.924 30.7463 173.661 30.962C173.397 31.1778 173.253 31.4655 173.253 31.849C173.253 32.0888 173.325 32.3045 173.445 32.4963C173.565 32.6641 173.733 32.832 173.924 32.9518C174.116 33.0957 174.356 33.2155 174.62 33.3354C174.883 33.4313 175.147 33.5512 175.435 33.671C175.842 33.8388 176.25 34.0306 176.633 34.2224C177.017 34.4142 177.353 34.63 177.664 34.8697C177.952 35.1334 178.168 35.4211 178.36 35.7567C178.527 36.0924 178.623 36.4999 178.623 36.9554C178.623 37.4588 178.503 37.9143 178.288 38.2739C178.096 38.6575 177.808 38.9932 177.425 39.2329C177.065 39.4966 176.609 39.6884 176.082 39.8083C175.579 39.9281 175.003 40 174.404 40C173.685 40 173.013 39.9281 172.366 39.7603C171.719 39.5925 171.191 39.4247 170.736 39.2329Z" fill="#38146A"/>
<path d="M4.04487 13.052C4.04487 11.4824 4.34672 9.91271 5.0108 8.34306C5.67489 6.77341 6.52008 5.38487 7.60676 4.11708C8.63307 2.90965 9.8405 1.94372 11.229 1.15889C12.6176 0.374067 13.9457 0.0118408 15.3343 0.0118408C16.4813 0.0118408 17.568 0.253324 18.6547 0.675922C19.7414 1.15889 20.7073 1.64186 21.6732 2.24557L20.3451 6.1697C19.4999 5.98858 18.5943 5.80747 17.6887 5.7471C16.7228 5.62636 15.9984 5.56599 15.455 5.56599C13.8854 5.56599 12.7383 5.92821 11.9535 6.59229C11.1083 7.25638 10.7461 8.58454 10.7461 10.6372V14.5613H17.8699V18.425H10.7461V34.9667C10.7461 35.329 10.8668 35.6308 11.0479 35.8119C11.229 36.0534 11.5309 36.1742 11.8931 36.1742L16.421 36.6571V39.4946H0.362227V36.6571L2.77707 36.2345C3.1393 36.1742 3.44116 36.0534 3.62227 35.8723C3.80338 35.6308 3.92412 35.3893 3.92412 34.9667V18.4854L0 17.8817V15.165L4.04487 14.5009V13.052Z" fill="url(#paint0_linear)"/>
<path d="M33.0826 36.0525C33.8071 36.0525 34.5919 35.9318 35.3164 35.7506C36.0408 35.5092 36.7049 35.2073 37.3086 34.8451V17.6997C36.886 17.4582 36.403 17.2771 35.7993 17.1563C35.1956 17.0356 34.5919 16.9752 33.9882 16.9752C33.143 16.9752 32.2978 17.096 31.5734 17.4582C30.8489 17.76 30.2452 18.3034 29.7018 19.0278C29.1585 19.8127 28.7359 20.839 28.4341 22.1068C28.1322 23.3746 28.0115 24.9442 28.0115 26.8761C28.0115 30.2569 28.4944 32.6113 29.4 33.9999C30.3056 35.3884 31.5734 36.0525 33.0826 36.0525ZM42.6816 39.9162C41.4139 39.9162 40.3875 39.6144 39.6027 39.1314C38.8179 38.5881 38.2142 37.8636 37.7916 36.8977C36.9464 37.8033 35.9201 38.5277 34.7127 39.1314C33.5656 39.7351 32.1771 39.9766 30.6678 39.9766C29.2792 39.9766 27.9511 39.7351 26.7437 39.3125C25.5362 38.8296 24.4496 38.0447 23.6044 37.0788C22.6988 36.1129 21.9743 34.7847 21.4914 33.2754C21.0084 31.7058 20.7065 29.8343 20.7065 27.7213C20.7065 23.1934 21.8536 19.7523 24.2081 17.3978C26.5022 15.0433 29.6415 13.8359 33.6863 13.8359C34.2901 13.8359 34.9541 13.8963 35.5578 13.9567C36.2219 14.017 36.7653 14.1378 37.3086 14.1981V5.80655C37.3086 5.44432 37.1879 5.14247 37.0068 4.90099C36.8256 4.71987 36.5842 4.59913 36.2219 4.53876L33.2034 4.05579V1.33909C33.9278 1.15797 34.7127 0.976864 35.6182 0.795751C36.4634 0.614637 37.3086 0.493893 38.2142 0.373151C39.1197 0.252409 39.9649 0.192038 40.8705 0.0712957C41.7157 0.0109245 42.5005 0.0109253 43.225 0.0109253L44.1306 0.856121V34.7847C44.1306 35.2677 44.2513 35.5695 44.4928 35.811C44.6739 35.9921 44.9757 36.1129 45.338 36.1129L47.6321 36.4147V39.071C47.0887 39.1918 46.3643 39.3729 45.3983 39.6144C44.4324 39.7955 43.5268 39.9162 42.6816 39.9162Z" fill="url(#paint1_linear)"/>
<path d="M58.9743 0H57.2539V39.9986H58.9743V0Z" fill="#38146A"/>
<defs>
<linearGradient id="paint0_linear" x1="-0.0109755" y1="21.9205" x2="47.4378" y2="21.2573" gradientUnits="userSpaceOnUse">
<stop stop-color="#7E187C"/>
<stop offset="1" stop-color="#38146A"/>
</linearGradient>
<linearGradient id="paint1_linear" x1="-0.0117506" y1="21.9196" x2="47.4371" y2="21.2563" gradientUnits="userSpaceOnUse">
<stop stop-color="#7E187C"/>
<stop offset="1" stop-color="#38146A"/>
</linearGradient>
</defs>
</svg>
