<svg xmlns="http://www.w3.org/2000/svg" fill="none" viewBox="0 0 179 40">
    <path fill="#38146A" d="M70.92 6.19c0-.75.14-1.49.46-2.23.31-.75.71-1.4 1.23-2A6.26 6.26 0 0174.33.54a3.86 3.86 0 013.52-.23c.51.23.97.46 1.43.74l-.63 1.87a8.9 8.9 0 00-1.26-.2c-.46-.06-.8-.1-1.06-.1-.74 0-1.29.18-1.66.5-.4.31-.57.94-.57 1.91V6.9h3.38v1.84H74.1v7.84c0 .17.06.31.14.4.09.11.23.17.4.17l2.15.23v1.35h-7.62v-1.35l1.15-.2a.74.74 0 00.4-.17.64.64 0 00.14-.43V8.76L69 8.48V7.19l1.92-.31v-.7z"/>
    <path fill="#38146A" d="M93.38 17.38v1.34h-7.35v-1.34l1.17-.2c.17-.03.32-.09.4-.2a.57.57 0 00.14-.4V9.45a.7.7 0 00-.14-.43c-.06-.11-.2-.2-.37-.23l-1.32-.26V7.2c.63-.17 1.29-.32 2.03-.43.72-.12 1.4-.14 2-.17l.52.43.35 2c.45-.72 1-1.29 1.66-1.77a3.46 3.46 0 012.83-.6c.32.05.57.14.75.22.02.32.05.63.05 1 0 .35 0 .72-.03 1.12a13.6 13.6 0 01-.31 2.29H94.3l-.34-1.37a.88.88 0 00-.29-.49c-.11-.08-.29-.11-.52-.11-.31 0-.65.05-1.05.2-.38.14-.75.37-1.12.68v6.39c0 .17.06.31.14.4.09.11.2.17.4.2l1.86.2z"/>
    <path fill="#38146A" d="M107.5 17.1c.38 0 .75-.06 1.1-.18.37-.14.68-.28.94-.51v-2.63l-1.4.11c-.75.03-1.26.23-1.58.54-.28.35-.45.75-.45 1.26 0 .46.11.8.34 1.03.2.26.57.38 1.06.38zm4.53 1.83c-.54 0-1.03-.12-1.43-.35a1.97 1.97 0 01-.86-1.08 4.58 4.58 0 01-3.58 1.46 3.67 3.67 0 01-2.46-.78 2.6 2.6 0 01-.94-2.11 2.81 2.81 0 011.4-2.52c.43-.29.94-.49 1.49-.63a6.73 6.73 0 011.69-.29l2.2-.14v-1.23c0-.95-.2-1.58-.57-1.95-.4-.37-1-.54-1.78-.54-.66 0-1.26.11-1.8.31s-1.06.55-1.55.95l-.74-.66c.31-.86.92-1.55 1.77-2.03a6.7 6.7 0 013.27-.75c1.57 0 2.75.4 3.46 1.15.75.74 1.12 1.89 1.12 3.35v5.4c0 .23.06.38.14.46.09.12.23.18.4.18l1.09.14v1.26a16.73 16.73 0 01-2.32.4z"/>
    <path fill="#38146A" d="M121 12.94c0-1 .14-1.89.43-2.69s.69-1.46 1.2-2a5.1 5.1 0 011.9-1.26 6.69 6.69 0 012.42-.43 9.17 9.17 0 013.9.86c.06.66.06 1.31 0 1.97-.06.69-.12 1.32-.23 1.92h-1.6l-.55-1.97a4 4 0 00-.17-.55c-.09-.11-.14-.23-.26-.34-.14-.09-.31-.2-.51-.29-.2-.06-.46-.11-.72-.11-.69 0-1.23.34-1.66 1.06-.43.68-.63 1.8-.63 3.35 0 1.48.23 2.6.72 3.34.46.75 1.2 1.12 2.23 1.12.63 0 1.17-.11 1.66-.34.46-.23.83-.46 1.12-.72l.74.6c-.28.75-.8 1.35-1.6 1.8a5.5 5.5 0 01-2.95.72c-.94 0-1.75-.14-2.43-.46a4.75 4.75 0 01-2.7-3.2 8.85 8.85 0 01-.3-2.38z"/>
    <path fill="#38146A" d="M139.3 15.4V8.72l-1.66-.29V7.2l1.32-.23a.75.75 0 00.42-.2c.09-.08.18-.23.23-.4l1-3.2h1.84l.08 3.72H146v1.77h-3.44v5.96c0 .83.14 1.4.4 1.69.26.31.63.45 1.12.45.31 0 .66-.05 1-.17.31-.11.63-.31.92-.57l.68.74a3.48 3.48 0 01-1.57 1.63c-.72.38-1.52.55-2.43.55a3.9 3.9 0 01-2.44-.75c-.63-.48-.94-1.4-.94-2.77z"/>
    <path fill="#38146A" d="M158.1 17.1c.37 0 .74-.06 1.08-.18.37-.14.69-.28.95-.51v-2.63l-1.4.11c-.75.03-1.27.23-1.58.54-.29.35-.46.75-.46 1.26 0 .46.12.8.34 1.03.2.26.58.38 1.06.38zm4.52 1.83c-.55 0-1.03-.12-1.44-.35a1.97 1.97 0 01-.85-1.08 4.59 4.59 0 01-3.58 1.46 3.68 3.68 0 01-2.46-.78 2.6 2.6 0 01-.95-2.11 2.81 2.81 0 011.4-2.52c.43-.29.95-.49 1.5-.63a6.74 6.74 0 011.68-.29l2.2-.14v-1.23c0-.95-.2-1.58-.57-1.95-.4-.37-1-.54-1.77-.54-.66 0-1.26.11-1.8.31-.55.2-1.06.55-1.55.95l-.74-.66c.31-.86.91-1.55 1.77-2.03a6.71 6.71 0 013.26-.75c1.58 0 2.75.4 3.47 1.15.74.74 1.11 1.89 1.11 3.35v5.4c0 .23.06.38.15.46.08.12.23.18.4.18l1.09.14v1.26c-.23.05-.58.14-1.03.23-.46.11-.9.17-1.3.17z"/>
    <path fill="#38146A" d="M176.78.4v16.18c0 .17.03.31.12.4a.6.6 0 00.37.2l1.34.2v1.35h-6.95v-1.35l1.34-.2c.17-.03.29-.09.37-.2.12-.09.15-.23.15-.4V2.75c0-.17-.03-.31-.15-.43a.65.65 0 00-.37-.17l-1.43-.23V.64c.34-.1.75-.18 1.15-.26.4-.09.83-.15 1.23-.2.43-.06.83-.09 1.23-.15.43-.02.8-.02 1.14-.02l.46.4z"/>
    <path fill="#38146A" d="M73.9 38.37c.29 0 .6-.05.89-.12.29-.1.55-.21.79-.36v-6.8c-.17-.1-.36-.17-.6-.22a3.65 3.65 0 00-.72-.07c-.33 0-.67.04-.96.19-.29.12-.53.33-.74.62-.22.31-.39.72-.5 1.22-.12.5-.17 1.13-.17 1.9 0 1.34.19 2.28.55 2.83.36.55.86.81 1.46.81zm3.81 1.54c-.5 0-.9-.12-1.22-.32-.31-.21-.55-.5-.72-.88-.33.36-.74.64-1.22.88-.46.24-1 .34-1.6.34-.56 0-1.09-.1-1.57-.26a3.3 3.3 0 01-1.24-.9 4 4 0 01-.84-1.5 7.53 7.53 0 01-.31-2.2c0-1.8.45-3.17 1.39-4.1a5 5 0 013.76-1.42c.24 0 .5.02.74.05.27.02.48.07.7.1v-3.34a.59.59 0 00-.12-.36.54.54 0 00-.31-.14l-1.2-.2V24.6a20.35 20.35 0 011.99-.39l1.05-.12c.34-.02.65-.02.94-.02l.36.34v13.47c0 .19.05.31.14.4.07.08.2.13.34.13l.9.12v1.05l-.88.22c-.38.07-.74.12-1.08.12z"/>
    <path fill="#38146A" d="M85.07 29.93v8c0 .15.05.25.12.34.07.1.17.15.31.17l.99.17v1.13h-5.57V38.6l.99-.17c.14-.02.26-.07.33-.17s.12-.19.12-.33v-6a.59.59 0 00-.12-.35c-.07-.1-.16-.15-.3-.17l-1.11-.22v-1.12c.57-.17 1.22-.3 1.94-.36.7-.1 1.34-.12 1.92-.12l.38.33zm.03-3.07c0 .43-.12.8-.41 1.06-.29.29-.67.4-1.15.4-.48 0-.84-.11-1.13-.4a1.37 1.37 0 01-.43-1.06c0-.43.14-.79.43-1.05.29-.27.65-.4 1.13-.4.48 0 .86.13 1.15.4.29.26.4.62.4 1.05z"/>
    <path fill="#38146A" d="M92.95 38.61v1.13h-5.22V38.6l1-.17a.5.5 0 00.31-.17c.08-.1.12-.19.12-.33v-6a.59.59 0 00-.12-.35c-.07-.1-.16-.15-.3-.17l-1.11-.2v-1.14c.55-.15 1.15-.27 1.77-.36.65-.1 1.23-.12 1.78-.15l.4.39.15.95c.4-.45.89-.79 1.41-1a4.85 4.85 0 011.78-.31c.67 0 1.24.12 1.65.36.4.23.74.57.94 1.03.45-.5.98-.84 1.55-1.06.6-.21 1.2-.33 1.85-.33 1.18 0 1.97.33 2.4 1 .43.67.65 1.63.65 2.86v4.48c0 .14.04.26.12.33.07.1.16.15.3.17l.99.17v1.13h-5.23V38.6l.67-.17c.15-.05.25-.1.32-.17.07-.1.12-.19.12-.33v-4.15c0-.89-.15-1.53-.39-1.92-.26-.4-.7-.6-1.32-.6a3.29 3.29 0 00-1.75.53c.03.24.08.48.1.74.02.27.02.53.02.84v4.56c0 .14.03.24.1.33.07.08.2.12.31.17l.7.17v1.13H94.1V38.6l.67-.17c.12-.05.24-.1.32-.17.07-.1.12-.19.12-.33v-4.22c0-.86-.12-1.49-.36-1.87-.22-.38-.65-.58-1.25-.58-.26 0-.55.05-.86.12-.32.1-.6.22-.87.39v6.16c0 .14.03.24.1.33.07.08.17.12.29.17l.7.17z"/>
    <path fill="#38146A" d="M111.2 30.75c-.48 0-.86.19-1.17.55-.29.38-.5 1-.58 1.92h3.31V32.8c0-.6-.12-1.1-.38-1.49-.26-.38-.65-.57-1.17-.57zm4.03 6.8c-.24.77-.7 1.35-1.41 1.78-.74.4-1.6.62-2.64.62-.79 0-1.46-.12-2.04-.36a3.95 3.95 0 01-1.44-1.03 4.44 4.44 0 01-.83-1.6 7.07 7.07 0 01-.3-2.09c0-1.7.44-3.02 1.3-3.93a4.64 4.64 0 013.55-1.37c1.3 0 2.25.31 2.9.94.65.6.98 1.43.98 2.44 0 .2-.02.43-.04.67a4.5 4.5 0 01-.1.67h-5.75v.08c0 1.36.19 2.37.62 2.97.4.6 1.08.89 1.97.89.5 0 .98-.1 1.43-.3.48-.18.84-.45 1.15-.8l.65.42z"/>
    <path fill="#38146A" d="M122.1 38.61v1.13h-5.27V38.6l1.01-.17a.5.5 0 00.31-.17c.07-.1.12-.19.12-.33v-6a.59.59 0 00-.12-.35c-.07-.1-.17-.15-.3-.17l-1.11-.22v-1.13c.55-.14 1.15-.26 1.77-.35.65-.1 1.22-.12 1.78-.15l.4.39.17.98c.43-.48.94-.82 1.49-1.03a5.7 5.7 0 011.82-.31c1.15 0 1.94.33 2.37.98.43.67.65 1.6.65 2.8v4.56c0 .14.02.26.12.33.07.1.17.15.31.17l.98.17v1.13h-5.25V38.6l.7-.17c.14-.05.24-.1.31-.17.07-.1.1-.19.1-.33v-4.22c0-.86-.12-1.49-.36-1.87-.24-.38-.67-.58-1.27-.58-.3 0-.63.05-.94.15-.31.1-.62.21-.9.4v6.12c0 .14.04.24.11.33.07.08.17.12.29.17l.72.17z"/>
    <path fill="#38146A" d="M130.02 39.23c-.07-.45-.1-.93-.07-1.41.02-.48.04-.96.12-1.37h1.36l.36 1.3.17.43c.05.1.14.19.24.26a2.78 2.78 0 001.49.43c.5 0 .88-.12 1.15-.36.24-.26.38-.55.38-.9 0-.25-.07-.46-.2-.65a2.33 2.33 0 00-.57-.48c-.21-.17-.5-.32-.84-.46l-1.08-.48a7.73 7.73 0 01-1.82-1.17 2.37 2.37 0 01-.7-1.8c0-.91.34-1.63 1.04-2.18.67-.55 1.68-.82 2.97-.82a9 9 0 011.75.17c.6.1 1.1.24 1.54.4a12.07 12.07 0 01-.15 2.67h-1.3l-.35-1.2a1.3 1.3 0 00-.17-.4c-.07-.1-.17-.18-.29-.27a2.19 2.19 0 00-.48-.2c-.19-.04-.38-.07-.6-.09-.4 0-.76.1-1.03.31-.26.22-.4.5-.4.89 0 .24.07.45.19.65.12.16.28.33.48.45.19.15.43.27.7.39l.8.33c.41.17.82.36 1.2.55.39.2.72.41 1.04.65.28.26.5.55.7.89.16.33.25.74.25 1.2 0 .5-.12.95-.33 1.31-.2.39-.48.72-.86.96-.36.27-.82.46-1.35.58a8.05 8.05 0 01-3.72-.05c-.64-.17-1.17-.34-1.62-.53z"/>
    <path fill="#38146A" d="M143.52 29.93v8c0 .15.04.25.12.34.07.1.16.15.3.17l1 .17v1.13h-5.57V38.6l.98-.17c.15-.02.27-.07.34-.17s.12-.19.12-.33v-6a.59.59 0 00-.12-.35c-.07-.1-.17-.15-.31-.17l-1.1-.22v-1.12a10.8 10.8 0 011.94-.36c.7-.1 1.34-.12 1.91-.12l.39.33zm.02-3.07c0 .43-.12.8-.4 1.06-.3.29-.68.4-1.16.4-.48 0-.84-.11-1.12-.4a1.37 1.37 0 01-.44-1.06c0-.43.15-.79.44-1.05.28-.27.64-.4 1.12-.4.48 0 .87.13 1.15.4.3.26.41.62.41 1.05z"/>
    <path fill="#38146A" d="M146.22 34.85c0-.94.14-1.75.4-2.45.24-.67.6-1.22 1.06-1.63a4.3 4.3 0 011.6-.93 6.5 6.5 0 011.97-.29c1.53 0 2.71.43 3.53 1.32.81.86 1.22 2.13 1.22 3.81 0 .94-.12 1.75-.39 2.45-.26.67-.6 1.2-1.05 1.63-.46.4-.98.71-1.6.9-.63.2-1.28.3-2 .3-1.5 0-2.68-.44-3.5-1.3-.84-.86-1.24-2.13-1.24-3.81zm6.83.02a9.1 9.1 0 00-.4-3.11c-.3-.65-.82-.99-1.6-.99-.61 0-1.1.29-1.4.87-.32.57-.49 1.58-.49 3 0 1.4.15 2.44.44 3.1.28.68.81 1.02 1.58 1.02.62 0 1.1-.3 1.41-.9.31-.57.46-1.57.46-2.99z"/>
    <path fill="#38146A" d="M162.83 38.61v1.13h-5.28V38.6l1.01-.17a.5.5 0 00.31-.17c.07-.1.12-.19.12-.33v-6a.59.59 0 00-.12-.35c-.07-.1-.16-.15-.3-.17l-1.11-.22v-1.13c.55-.14 1.15-.26 1.77-.35.65-.1 1.23-.12 1.78-.15l.4.39.17.98c.43-.48.94-.82 1.49-1.03a5.7 5.7 0 011.82-.31c1.15 0 1.94.33 2.37.98.44.67.65 1.6.65 2.8v4.56c0 .14.03.26.12.33.07.1.17.15.31.17l.98.17v1.13h-5.25V38.6l.7-.17c.14-.05.24-.1.31-.17.07-.1.1-.19.1-.33v-4.22c0-.86-.12-1.49-.36-1.87-.24-.38-.67-.58-1.27-.58-.29 0-.63.05-.94.15-.3.1-.62.21-.9.4v6.12c0 .14.04.24.11.33.07.08.17.12.29.17l.72.17z"/>
    <path fill="#38146A" d="M170.74 39.23c-.08-.45-.1-.93-.08-1.41.03-.48.05-.96.12-1.37h1.37l.36 1.3.17.43c.05.1.14.19.24.26a2.78 2.78 0 001.48.43c.5 0 .9-.12 1.16-.36.23-.26.38-.55.38-.9 0-.25-.07-.46-.2-.65a2.33 2.33 0 00-.57-.48c-.21-.17-.5-.32-.84-.46l-1.08-.48a7.73 7.73 0 01-1.82-1.17 2.37 2.37 0 01-.7-1.8c0-.91.34-1.63 1.04-2.18.67-.55 1.67-.82 2.97-.82a9 9 0 011.75.17c.6.1 1.1.24 1.53.4a12.07 12.07 0 01-.14 2.67h-1.3l-.35-1.2a1.3 1.3 0 00-.17-.4c-.07-.1-.17-.18-.29-.27a2.19 2.19 0 00-.48-.2c-.2-.04-.38-.07-.6-.09-.4 0-.77.1-1.03.31-.26.22-.4.5-.4.89 0 .24.06.45.19.65.12.16.28.33.47.45.2.15.44.27.7.39l.81.33c.41.17.82.36 1.2.55.39.2.72.41 1.03.65.3.26.5.55.7.89.17.33.26.74.26 1.2 0 .5-.12.95-.33 1.31-.2.39-.48.72-.86.96-.37.27-.82.46-1.35.58a8.05 8.05 0 01-3.72-.05c-.64-.17-1.17-.34-1.62-.53z"/>
    <path fill="url(#paint0_linear)" d="M4.04 13.05c0-1.57.3-3.14.97-4.7.66-1.58 1.51-2.97 2.6-4.23a13.2 13.2 0 013.62-2.96 8.14 8.14 0 017.42-.48c1.1.48 2.06.96 3.02 1.57l-1.32 3.92c-.85-.18-1.76-.36-2.66-.42-.97-.12-1.7-.18-2.24-.18-1.56 0-2.71.36-3.5 1.02-.84.67-1.2 2-1.2 4.05v3.92h7.12v3.87h-7.12v16.54c0 .36.12.66.3.84.18.24.48.36.84.36l4.53.49v2.83H.36v-2.83l2.42-.43c.36-.06.66-.18.84-.36.18-.24.3-.48.3-.9V18.49L0 17.89v-2.73l4.04-.66v-1.45z"/>
    <path fill="url(#paint1_linear)" d="M33.08 36.05c.73 0 1.51-.12 2.24-.3a10 10 0 001.99-.9V17.7c-.42-.24-.9-.42-1.51-.54-.6-.12-1.2-.18-1.81-.18a5.4 5.4 0 00-2.42.48 4.6 4.6 0 00-1.87 1.57 9.1 9.1 0 00-1.27 3.08c-.3 1.26-.42 2.83-.42 4.77 0 3.38.48 5.73 1.39 7.12a4.21 4.21 0 003.68 2.05zm9.6 3.87a5.8 5.8 0 01-3.08-.79 5.13 5.13 0 01-1.8-2.23c-.85.9-1.88 1.63-3.09 2.23-1.14.6-2.53.85-4.04.85a11.9 11.9 0 01-3.93-.67 8.31 8.31 0 01-3.14-2.23c-.9-.97-1.63-2.3-2.1-3.8a18.95 18.95 0 01-.8-5.56c0-4.53 1.15-7.97 3.5-10.32 2.3-2.36 5.44-3.56 9.49-3.56.6 0 1.26.06 1.87.12.66.06 1.2.18 1.75.24V5.8c0-.36-.12-.66-.3-.9-.18-.18-.43-.3-.79-.36l-3.02-.48V1.34c.73-.18 1.51-.36 2.42-.54.84-.19 1.69-.3 2.6-.43.9-.12 1.74-.18 2.65-.3.85-.06 1.63-.06 2.36-.06l.9.85v33.92c0 .49.12.79.36 1.03.18.18.49.3.85.3l2.3.3v2.66c-.55.12-1.28.3-2.24.54-.97.19-1.87.3-2.72.3z"/>
    <path fill="#38146A" d="M58.97 0h-1.72v40h1.72V0z"/>
    <defs>
        <linearGradient id="paint0_linear" x1="-.01" x2="47.44" y1="21.92" y2="21.26" gradientUnits="userSpaceOnUse">
            <stop stop-color="#7E187C"/>
            <stop offset="1" stop-color="#38146A"/>
        </linearGradient>
        <linearGradient id="paint1_linear" x1="-.01" x2="47.44" y1="21.92" y2="21.26" gradientUnits="userSpaceOnUse">
            <stop stop-color="#7E187C"/>
            <stop offset="1" stop-color="#38146A"/>
        </linearGradient>
    </defs>
</svg>
